<?xml version="1.0" encoding="UTF-8"?>
<svg id="Layer_2" data-name="Layer 2" xmlns="http://www.w3.org/2000/svg" xmlns:xlink="http://www.w3.org/1999/xlink" viewBox="0 0 232.9 116.02">
  <defs>
    <style>
      .cls-1 { fill: #fff; }
      .cls-2 { fill: url(#linear-gradient); }
    </style>
    <linearGradient id="linear-gradient" x1="0" y1="58.01" x2="110.8" y2="58.01" gradientUnits="userSpaceOnUse">
      <stop offset="0" stop-color="#7e256f"/>
      <stop offset=".08" stop-color="#8d2a80"/>
      <stop offset=".29" stop-color="#bb3d95"/>
      <stop offset=".39" stop-color="#bb3d95"/>
      <stop offset=".81" stop-color="#ec228c"/>
    </linearGradient>
  </defs>
  <g id="Layer_1-2" data-name="Layer 1">
    <g>
      <polygon class="cls-2" points="39.46 116.02 23.45 46.09 5.53 53.82 0 41.02 33.31 26.64 45.1 78.16 89.94 0 110.8 .09 110.74 14.04 98 13.99 39.46 116.02"/>
      <g>
        <path class="cls-1" d="M137.86,72.97c0,2.94-.44,5.86-1.29,8.74-.86,2.89-2.2,5.57-4.04,8.05-1.84,2.48-4.2,4.69-7.1,6.61-2.9,1.93-6.38,3.43-10.46,4.53-5.11,1.37-9.74,1.74-13.88,1.1-4.15-.64-7.78-1.98-10.91-4.04-3.13-2.06-5.73-4.66-7.8-7.79-2.08-3.14-3.6-6.52-4.57-10.15-.97-3.63-1.35-7.32-1.12-11.08.22-3.75,1.17-7.3,2.86-10.65,1.68-3.35,4.16-6.33,7.43-8.96,3.26-2.62,7.45-4.61,12.57-5.99,4.81-1.29,9.22-1.6,13.21-.93,3.99.68,7.52,2.06,10.58,4.13,3.06,2.08,5.62,4.69,7.69,7.82,2.07,3.14,3.59,6.52,4.57,10.16.18.67.32,1.36.44,2.08s.23,1.43.33,2.11l-43.89,11.77c1.71,3.12,4.19,5.57,7.45,7.35,3.25,1.79,7.18,2.06,11.77.83,3.55-.95,6.31-2.5,8.28-4.66,1.96-2.16,3.25-4.58,3.88-7.3l14-3.75ZM119.27,61.4c-1.77-2.46-4.07-4.29-6.89-5.48-2.82-1.19-6.01-1.31-9.57-.35-3.93,1.05-6.88,2.84-8.87,5.35-1.99,2.52-3.18,5.26-3.58,8.23l28.9-7.75Z"/>
        <path class="cls-1" d="M141.21,101.15v-41.87c0-4.61,1.42-8.36,4.26-11.27,2.84-2.91,7.01-4.38,12.54-4.38h17.26v12.66h-15.19c-1.84,0-3.15.43-3.91,1.27s-1.15,1.95-1.15,3.33v40.26h-13.81Z"/>
        <path class="cls-1" d="M206.32,101.96c-8.51,0-15.06-2.4-19.67-7.19-4.6-4.79-6.9-11.48-6.9-20.08v-31.06h13.81v33.02c0,3.83,1.19,6.9,3.56,9.2,2.38,2.3,5.45,3.45,9.2,3.45s6.83-1.15,9.2-3.45c2.38-2.3,3.57-5.37,3.57-9.2v-33.02h13.81v31.06c0,8.6-2.31,15.29-6.9,20.08-4.61,4.8-11.16,7.19-19.68,7.19Z"/>
      </g>
    </g>
  </g>
</svg>
